<?xml version="1.0" encoding="utf-8"?>
<!-- Generator: Adobe Illustrator 21.0.0, SVG Export Plug-In . SVG Version: 6.00 Build 0)  -->
<!DOCTYPE svg PUBLIC "-//W3C//DTD SVG 1.1//EN" "http://www.w3.org/Graphics/SVG/1.1/DTD/svg11.dtd">
<svg version="1.1" id="Layer_1" xmlns="http://www.w3.org/2000/svg" xmlns:xlink="http://www.w3.org/1999/xlink" x="0px" y="0px"
	 width="273px" height="107px" viewBox="0 0 273 107" style="enable-background:new 0 0 273 107;" xml:space="preserve">
<path style="fill:#FBDB65;" d="M253.4,13.2c-1.9-2.2-5-2.8-7.2-0.9c-2.2,1.9-4.2,6.7-2.3,9c1.9,2.2,8.5,2.9,10.7,1
	C256.9,20.3,255.3,15.4,253.4,13.2z"/>
<path style="fill:#6CC24A;" d="M264.7,24.5c-1.4,0-2.7,0.3-4.1,0.4c-2.7,0.2-5.4,0.5-8.1,0.9c-2.7,0.4-5.4,0.8-8,1.3
	c-1.2,0.2-2.4,0.5-3.6,0.8c0-1.2,0-2.4-0.1-3.6c-0.1-2.7-0.3-5.4-0.6-8.1c-0.3-2.7-0.6-5.4-1.1-8.1c-0.2-1.3-0.2-2.8-0.5-4.1
	c-0.3-1.3-0.7-3.7-1.3-4c-0.7-0.3-0.9,2.7-1.2,4c-0.3,1.4-0.4,2.7-0.6,4.1c-0.4,2.7-0.8,5.4-1.1,8.1c-0.3,2.7-0.5,5.8-0.6,8.5
	c-0.1,2.7-0.5,7.6-0.5,7.6s-0.5,4.2,0.3,4.8c0.9,0.6,4.6-0.8,4.6-0.8c2.5-0.7,5.1-1.6,7.7-2.4c2.6-0.8,5.2-1.6,7.7-2.5
	c2.6-0.9,5.1-1.9,7.6-2.9c1.3-0.6,3.8-1.5,3.8-1.5s3.7-1.5,3.6-2.1C268.8,24.2,266.1,24.5,264.7,24.5z"/>
<path style="fill:#68D2DF;" d="M264.2,53.5c-2.1-2-9.4-3.2-11.4-1c-2,2.1-1.2,10,1,12.1c2.1,2,6.7-0.8,8.7-3
	C264.5,59.4,266.4,55.5,264.2,53.5z"/>
<path style="fill:#0092BC;" d="M268.8,42.9c-1.4-0.1-2.7,0-4.1-0.1c-2.7-0.2-5.5-0.2-8.2-0.2c-2.7,0-5.8,0.2-8.5,0.3
	c-2.7,0.2-7.6,0.3-7.6,0.3s-4.2-0.1-4.7,0.8c-0.5,0.9,1.3,4.5,1.3,4.5c1,2.4,2.2,4.9,3.2,7.4c1,2.5,2.1,5,3.3,7.4
	c1.2,2.5,2.4,4.9,3.8,7.3c0.7,1.2,2,3.6,2,3.6s1.9,3.5,2.5,3.4c0.5-0.2,0-2.8-0.2-4.2c-0.2-1.4-0.6-2.7-0.9-4
	c-0.5-2.7-1.1-5.3-1.8-8c-0.7-2.6-1.4-5.2-2.2-7.8c-0.4-1.2-0.8-2.3-1.2-3.4c1.2-0.2,2.4-0.3,3.6-0.5c2.7-0.4,5.3-0.9,8-1.5
	c2.7-0.6,5.3-1.2,7.9-1.9c1.3-0.4,2.7-0.5,4.1-0.9c1.3-0.4,3.6-1.1,3.8-1.7C273.2,42.9,270.2,43.1,268.8,42.9z"/>
<path style="fill:#68D2DF;" d="M213.1,18.3c-0.7-2.8-3.1-6.5-5.9-5.7c-2.8,0.8-7.6,6.3-6.9,9.1c0.7,2.8,7.9,6.3,10.8,5.5
	C213.9,26.5,213.8,21.1,213.1,18.3z"/>
<path style="fill:#DBE442;" d="M226.1,33.1c-0.5-2.5-1.3-5.2-1.9-7.9c-0.6-2.6-1.2-5.3-2-7.9c-0.7-2.6-1.5-5.2-2.5-7.8
	c-0.5-1.3-1.3-3.9-1.3-3.9s-1.3-3.8-1.9-3.8c-0.6,0.1-0.5,2.7-0.5,4.2c-0.1,1.4,0.2,2.7,0.2,4.1c0,2.7,0.2,5.5,0.4,8.2
	c0.2,2.7,0.5,5.4,0.8,8.1c0.2,1.2,0.4,2.4,0.6,3.6c-1.2,0-2.4-0.1-3.6-0.1c-2.7,0-5.4,0-8.1,0.1c-2.7,0.1-5.4,0.3-8.2,0.5
	c-1.4,0.2-2.8,0-4.1,0.2c-1.4,0.2-3.7,0.4-4.1,1c-0.4,0.7,2.6,1.1,4,1.4c1.3,0.4,2.7,0.5,4,0.8c2.7,0.6,5.3,1.1,8,1.6
	c2.7,0.4,5.8,0.8,8.4,1.1c2.7,0.3,7.5,1,7.5,1s4.1,0.8,4.8,0C227.3,36.9,226.1,33.1,226.1,33.1z"/>
<path style="fill:#582C83;" d="M13.7,86.9l-2.8,4.8c-0.7,1.2-1.1,1.5-1.9,1.5H0.8c-0.6,0-0.8-0.3-0.8-0.8c0-0.3,0.1-0.6,0.2-0.9
	l3.4-6.5C5.9,80.5,6,79.5,6,74.3V36.1c0-0.6,0.4-1.2,1.1-1.2h8.5c0.6,0,1.1,0.6,1.1,1.2v38.2C16.6,79.6,16.3,82.6,13.7,86.9z
	 M38.3,81.6h-0.9c-3.9,0-14.9-1.2-14.9-15.8V46.8c0-0.7,0.5-1.3,1.2-1.3h7.7c0.7,0,1.2,0.6,1.2,1.3v19.1c0,5.9,1.9,7.3,4.8,7.3h0.9
	c2.9,0,4.8-1.4,4.8-7.3V46.8c0-0.7,0.6-1.3,1.2-1.3H52c0.7,0,1.2,0.6,1.2,1.3v19.1C53.2,80.5,42.3,81.6,38.3,81.6z M87.6,81.1H80
	c-0.7,0-1.2-0.6-1.2-1.3V57.9c0-2.7-0.4-4.7-3.7-4.7h-3.1c-3.2,0-3.7,1.9-3.7,4.7v21.9c0,0.7-0.6,1.3-1.2,1.3h-7.7
	c-0.7,0-1.2-0.6-1.2-1.3V57.9C58.2,49.3,63,45,71.9,45H75c9,0,13.8,4.3,13.8,12.9v21.9C88.8,80.5,88.3,81.1,87.6,81.1z M115.9,80.7
	c-1.7,0.4-4.5,0.9-8.3,0.9c-8.8,0-14.5-5.6-14.5-15.7v-5.2c0-10.1,5.7-15.7,14.5-15.7c3.7,0,6.5,0.5,8.3,0.9
	c0.9,0.2,1.3,0.5,1.3,1.4v5.5c0,0.6-0.6,1.1-1.2,1.1c-0.1,0-0.1,0-0.1,0c-2.3-0.3-4-0.4-7.6-0.4c-2.8,0-5.1,1.7-5.1,7.2v5.2
	c0,5.5,2.3,7.2,5.1,7.2c3.5,0,5.3-0.2,7.6-0.4c0.1,0,0.1,0,0.1,0c0.6,0,1.2,0.4,1.2,1.1v5.5C117.2,80.2,116.9,80.5,115.9,80.7z
	 M140.2,53h-8.5v18.5c0,2.2,1,2.5,3.7,2.5h4.7c0.8,0,1.3,0.4,1.3,1.1v4.8c0,0.7-0.4,1.1-1.2,1.2c-1.8,0.3-4.8,0.6-7.5,0.6
	c-7,0-11.1-2.2-11.1-10.3V40.2c0-0.7,0.6-1.1,1.2-1.2l7.6-1.3c0.1,0,0.1,0,0.2,0c0.6,0,1.1,0.6,1.1,1.2v6.6h8.5
	c0.7,0,1.2,0.6,1.2,1.2v5C141.5,52.4,140.9,53,140.2,53z M155.8,41.4h-8.1c-0.7,0-1.2-0.6-1.2-1.2v-5.8c0-0.7,0.6-1.2,1.2-1.2h8.1
	c0.7,0,1.2,0.6,1.2,1.2v5.8C157,40.9,156.5,41.4,155.8,41.4z M155.5,81.1h-7.6c-0.7,0-1.2-0.6-1.2-1.2V46.7c0-0.7,0.6-1.2,1.2-1.2
	h7.6c0.7,0,1.2,0.6,1.2,1.2v33.1C156.8,80.5,156.2,81.1,155.5,81.1z M176.9,81.6c-10.1,0-15.6-6.3-15.6-16.2v-4.4
	c0-9.9,5.5-16.2,15.6-16.2c10.1,0,15.6,6.3,15.6,16.2v4.4C192.5,75.4,187,81.6,176.9,81.6z M182.4,61.1c0-5-1.9-7.6-5.5-7.6
	c-3.6,0-5.6,2.5-5.6,7.6v4.4c0,5,2,7.6,5.6,7.6c3.6,0,5.5-2.6,5.5-7.6V61.1z M226.2,81.1h-7.7c-0.7,0-1.2-0.6-1.2-1.3V57.9
	c0-2.7-0.4-4.7-3.7-4.7h-3.1c-3.2,0-3.7,1.9-3.7,4.7v21.9c0,0.7-0.6,1.3-1.2,1.3h-7.7c-0.7,0-1.2-0.6-1.2-1.3V57.9
	c0-8.6,4.8-12.9,13.8-12.9h3.1c9,0,13.8,4.3,13.8,12.9v21.9C227.4,80.5,226.9,81.1,226.2,81.1z M105.8,106.8h-2.1
	c-0.2,0-0.3-0.2-0.4-0.3l-0.9-3.7H98l-0.9,3.7c0,0.2-0.2,0.3-0.4,0.3h-2.1c-0.2,0-0.4-0.1-0.4-0.3c0,0,0-0.1,0-0.1l3.2-12.2
	c0.5-1.8,1.9-2,2.7-2c0.8,0,2.2,0.2,2.7,2l3.2,12.2c0,0,0,0.1,0,0.1C106.2,106.7,106,106.8,105.8,106.8z M100.6,94.8
	c-0.1-0.2-0.1-0.3-0.3-0.3c-0.2,0-0.3,0.1-0.3,0.3l-1.4,5.8h3.4L100.6,94.8z M116.9,107c-3.1,0-5.3-1.4-5.3-5.5v-8.7
	c0-0.2,0.2-0.4,0.4-0.4h1.9c0.2,0,0.4,0.2,0.4,0.4v8.7c0,2.2,0.5,3.3,2.6,3.3c2.1,0,2.6-1.1,2.6-3.3v-8.7c0-0.2,0.2-0.4,0.4-0.4h1.9
	c0.2,0,0.4,0.2,0.4,0.4v8.7C122.3,105.6,120,107,116.9,107z M132.6,107c-1.5,0-2.5-0.1-3.4-0.4c-0.2,0-0.4-0.2-0.4-0.4v-1.4
	c0-0.2,0.2-0.4,0.4-0.4c0,0,0,0,0,0c0.8,0.1,2.7,0.2,3.4,0.2c1.7,0,2.3-0.6,2.3-1.7c0-0.8-0.4-1.1-1.7-1.9l-2.6-1.5
	c-1.8-1.1-2.3-2.2-2.3-3.6c0-2.1,1.2-3.7,4.9-3.7c1.3,0,3.1,0.2,3.7,0.4c0.2,0,0.3,0.2,0.3,0.4v1.4c0,0.2-0.1,0.3-0.3,0.3
	c0,0,0,0,0,0c-1.3-0.1-2.6-0.2-3.8-0.2c-1.4,0-2,0.5-2,1.4c0,0.6,0.3,1,1.6,1.7L135,99c2.1,1.2,2.7,2.4,2.7,4
	C137.7,104.9,136.5,107,132.6,107z M153,94.7h-3.4v11.8c0,0.2-0.2,0.4-0.4,0.4h-1.9c-0.2,0-0.4-0.2-0.4-0.4V94.7h-3.4
	c-0.2,0-0.4-0.1-0.4-0.3v-1.5c0-0.2,0.2-0.4,0.4-0.4h9.5c0.2,0,0.4,0.2,0.4,0.4v1.5C153.4,94.5,153.3,94.7,153,94.7z M169.6,106.8
	h-2.4c-0.2,0-0.3-0.2-0.4-0.4l-2.8-5.2h-0.3c-0.5,0-1.3-0.1-1.7-0.1v5.3c0,0.2-0.2,0.4-0.4,0.4h-1.9c-0.2,0-0.4-0.2-0.4-0.4V93.1
	c0-0.4,0.2-0.5,0.6-0.6c1-0.2,2.4-0.3,3.8-0.3c3,0,5.6,1.1,5.6,4.4v0.2c0,2.1-1,3.3-2.6,4l3.1,5.7c0,0.1,0,0.1,0,0.2
	C169.9,106.7,169.8,106.8,169.6,106.8z M166.7,96.6c0-1.5-1-2.1-2.9-2.1c-0.4,0-1.4,0-1.7,0.1V99c0.3,0,1.4,0.1,1.7,0.1
	c2,0,2.9-0.5,2.9-2.3V96.6z M186.9,106.8h-2.1c-0.2,0-0.3-0.2-0.4-0.3l-0.9-3.7h-4.5l-0.9,3.7c0,0.2-0.2,0.3-0.4,0.3h-2.1
	c-0.2,0-0.4-0.1-0.4-0.3c0,0,0-0.1,0-0.1l3.2-12.2c0.5-1.8,1.9-2,2.7-2c0.8,0,2.2,0.2,2.7,2l3.2,12.2c0,0,0,0.1,0,0.1
	C187.2,106.7,187.1,106.8,186.9,106.8z M181.6,94.8c-0.1-0.2-0.1-0.3-0.3-0.3c-0.2,0-0.3,0.1-0.3,0.3l-1.4,5.8h3.4L181.6,94.8z
	 M200.6,106.7c-0.6,0.1-2.3,0.3-3.3,0.3c-2.5,0-4.5-0.7-4.5-4V92.8c0-0.2,0.2-0.4,0.4-0.4h1.9c0.2,0,0.4,0.2,0.4,0.4V103
	c0,1.3,0.4,1.7,1.5,1.7h3.6c0.2,0,0.4,0.2,0.4,0.4v1.2C201,106.6,200.9,106.7,200.6,106.7z M209.2,106.8h-1.9
	c-0.2,0-0.4-0.2-0.4-0.4V92.8c0-0.2,0.2-0.4,0.4-0.4h1.9c0.2,0,0.4,0.2,0.4,0.4v13.7C209.6,106.7,209.4,106.8,209.2,106.8z
	 M227,106.8h-2.1c-0.2,0-0.3-0.2-0.4-0.3l-0.9-3.7h-4.5l-0.9,3.7c0,0.2-0.2,0.3-0.4,0.3h-2.1c-0.2,0-0.4-0.1-0.4-0.3
	c0,0,0-0.1,0-0.1l3.2-12.2c0.5-1.8,1.9-2,2.7-2c0.8,0,2.2,0.2,2.7,2l3.2,12.2c0,0,0,0.1,0,0.1C227.3,106.7,227.1,106.8,227,106.8z
	 M221.7,94.8c-0.1-0.2-0.1-0.3-0.3-0.3c-0.2,0-0.3,0.1-0.3,0.3l-1.4,5.8h3.4L221.7,94.8z"/>
</svg>
