<?xml version="1.0" encoding="utf-8"?>
<!-- Generator: Adobe Illustrator 19.2.1, SVG Export Plug-In . SVG Version: 6.00 Build 0)  -->
<svg version="1.1" id="Layer_1" xmlns="http://www.w3.org/2000/svg" xmlns:xlink="http://www.w3.org/1999/xlink" x="0px" y="0px"
	 viewBox="0 0 870.1 200" style="enable-background:new 0 0 870.1 200;" xml:space="preserve">
<style type="text/css">
	.st0{fill:#232323;}
</style>
<g>
	<g>
		<path class="st0" d="M161.6,14.4l4.5,4.6l45.7,79.2l0,7l-43.9,76.1l-2.5,4.3l-5.6,3.4l-1.4,0l-90.8,0l-0.8,0l-6.2-3.6l-30.8-53.4
			l-15.5-26.7l0-7.1l42.3-73.3l3.1-5.4l4.7-5H161.6L161.6,14.4z M161,18.3l-1.9-0.1l-92,0l-3.3,1.9L18.1,99.4l-0.7,1.3l71,41
			L161,18.3L161,18.3z M208.8,100.6L163.4,22L91.8,143.6l5.9,3.4l13.5,7.8l2.9,0l0.5-0.3l92.9-53.1L208.8,100.6L208.8,100.6z
			 M161.8,184.1l44.6-77.3l-0.6,0.1l-89,50.9l0,0.1l0,0.2L161.8,184.1L161.8,184.1z M20.1,106.7l-0.2,0.3l43.6,75.6l0.3,0.3l0.1,0
			l0.2,0L86.5,145L20.1,106.7L20.1,106.7z M155.3,184.9l-1.4-0.9l-6.3-3.7l-33.7-19.5l-2.5-0.1l-41,23.5l-0.9,0.7H155.3L155.3,184.9
			z M70.9,179.1l0.2,0.3l37.6-21.4L89.8,147L70.9,179.1L70.9,179.1z"/>
		<path class="st0" d="M66.5,189.9l-6.8-4.1l-23.2-40.2l-11.8-20.5l-11.2-19.4l0-8.1l33.7-58.3l8.7-15l0.9-1.6l2.2-3.8l5.2-5.5
			l0.2-0.1h97.6l0.2,0.1l5,5.1l45.7,79.2l0,8l-35.1,60.7l-9.2,16l-2.1,3.6l-6.5,3.9l-1.1,0l-91.4,0l-0.5,0L66.5,189.9L66.5,189.9z
			 M64.7,15.4l-4.1,4.5l-2.2,3.9l-0.9,1.5l-8.7,15L15.2,98.6l0,6.1l11.2,19.4l11.8,20.5l23.2,40.2l5.3,3.1l0.6,0l0.3,0h91.1l1,0
			l4.8-2.8l2.1-3.7l9.2-16l35.1-60.7l0-6l-45.7-79.2l-3.9-4.1H64.7L64.7,15.4z M158.7,185.9H66.4l2.5-1.8l0.4-0.3l0.6-0.4l10.7-6.1
			l30.4-17.4l3.5,0.1l26.9,15.5l8.7,5.1l4.4,2.5l0.8,0.5L158.7,185.9L158.7,185.9z M73,183.9h78.8l-2.7-1.5l-8.7-5.1l-26.9-15.5
			l-1.5-0.1L81.5,179L73,183.9L73,183.9z M162.2,185.4l-46.3-26.7l-0.1-0.9l0.6-0.9l89-50.9l0.7-0.2l0.3,0l2.1-0.3L162.2,185.4
			L162.2,185.4z M118.5,157.9l42.9,24.8l42.5-73.6L118.5,157.9L118.5,157.9z M117.3,158.6L117.3,158.6L117.3,158.6L117.3,158.6z
			 M63.9,183.9l-0.1,0l-0.8-0.4l-0.4-0.5l-44-76.1l1.2-1.5l68,39.2l-23.1,39.2l-0.6,0L63.9,183.9L63.9,183.9z M64.5,182.2
			L64.5,182.2L64.5,182.2L64.5,182.2z M22.3,109.1L64,181.3l21.1-35.9L22.3,109.1L22.3,109.1z M70.9,180.6l-1.2-1.5l19.7-33.5
			l21.2,12.3l-1.5,0.9L77,177.1L70.9,180.6L70.9,180.6z M90.2,148.3l-16.8,28.6l2.6-1.5l30.7-17.5L90.2,148.3L90.2,148.3z
			 M112.7,156.4l-2-0.6l-9.8-5.7l-10.4-6l73-124l46.8,81l-1.3,0.8l-0.9,0.6l-93.1,53.2l-0.2,0.1L112.7,156.4L112.7,156.4z
			 M93.1,143.3l8.7,5l9.8,5.7l1.8,0l0.5-0.3l0.1-0.1l92.9-53.1l0.5-0.3L163.4,24L93.1,143.3L93.1,143.3z M88.8,143.1l-0.9-0.5
			l-71.9-41.5l0.7-1.3l0.5-0.9l10.1-17.4L63,19.6l4.2-2.4h0l69,0l23,0l1.2,0.1l0.8,0.1l1.6,0.1L88.8,143.1L88.8,143.1z M18.7,100.3
			l69.3,40l71.3-121.1l-0.2,0l-23,0l-69,0h0l-2.4,1.4L29,82.5L19,99.9L18.7,100.3L18.7,100.3z"/>
	</g>
	<g>
		<path class="st0" d="M66.5,189.2l-6.2-3.7l-23.4-40.7l-7.4-12.7l-4.2-7.3l-11.2-19.4l0-7.4l33.6-58.1l8.8-15.2l0.9-1.5l2.2-3.8
			l4.8-5.1l0.1,0h97.2l0.1,0l4.7,4.8L212.1,98l0,7.3L177,166l-9.2,16l-2.1,3.7l-5.9,3.5l-0.7,0l-0.7,0l-90.8,0l-0.5,0l-0.3,0
			L66.5,189.2L66.5,189.2z M64.6,14.6l-4.5,4.9l-2.2,3.9L57,24.9l-8.8,15.2L14.6,98.2l0,6.8l11.3,19.4l4.2,7.3l7.4,12.7l23.4,40.7
			l5.9,3.4l0.3,0l0.5,0l90.8,0l0.7,0l0.7,0l5.4-3.2l2.1-3.7l9.2-16l35-60.6l0-6.7l-45.7-79.2l-4.3-4.5H64.6L64.6,14.6z M156.3,185.2
			H68.6l0.7-0.5l0.4-0.3l0.5-0.4l11.3-6.4l29.8-17l1.3-0.4l1.6,0.5l27.7,16l8,4.6l4.2,2.5l0.8,0.5l0.6,0.4L156.3,185.2L156.3,185.2z
			 M70.3,184.6h84l-0.6-0.3l-4.2-2.5l-8-4.6l-27.7-16l-2.3-0.1l-29.8,17l-11.3,6.4L70.3,184.6L70.3,184.6z M161.9,184.5l-45.4-26.2
			l0-0.2l0-0.2l0.2-0.3l89-50.9l0.4-0.1l0.3,0l0.6-0.1l-21.8,37.7L161.9,184.5L161.9,184.5z M117.1,157.9l44.6,25.7l44.2-76.5
			L117.1,157.9L117.1,157.9z M64,183.2L64,183.2l-0.4-0.1l-0.3-0.4l-40.5-70.1l-3.3-5.7l0.5-0.6l66.8,38.6l-22.5,38.3l-0.3,0
			L64,183.2L64,183.2z M20.3,107.2l3,5.2l40.5,70.1l0.2,0.2h0l22.1-37.5L20.3,107.2L20.3,107.2z M71,179.7l-0.5-0.6l19.1-32.5
			l19.6,11.3l-0.4,0.2l-32.3,18.5L71,179.7L71,179.7z M89.9,147.4l-18.5,31.5l4.8-2.8l31.9-18.2L89.9,147.4L89.9,147.4z
			 M112.6,155.6L112.6,155.6l-1.7-0.5l-9.8-5.7l-3.7-2.1l-6.1-3.6l72-122.3l45.8,79.3l-0.7,0.5l-0.9,0.5L123.1,150l-8.4,4.8
			l-0.2,0.1l-0.3,0.2L112.6,155.6L112.6,155.6z M92.2,143.5l5.6,3.3l3.7,2.1l9.8,5.7l1.4,0.5l0,0l1.2-0.5l0.4-0.2l0.2-0.1l8.4-4.8
			l84.5-48.3l0.9-0.5l0.3-0.2l-45-78L92.2,143.5L92.2,143.5z M88.5,142.1l-0.2-0.1L17,100.8l0.4-0.7l0.4-0.8l9.5-16.5L63.6,20
			l3.6-2.1h0l69.3,0l22.7,0l1.1,0.1l0.8,0.1l0.5,0L88.5,142.1L88.5,142.1z M17.8,100.6l70.5,40.7l72.2-122.7l-0.3,0l-1.1-0.1
			l-22.7,0l-69.3,0l0-0.3v0.3l-3.1,1.8L27.9,83l-9.5,16.5l-0.4,0.8L17.8,100.6L17.8,100.6z"/>
		<path class="st0" d="M66.5,190.2l-7-4.2l-23.4-40.7l-7.4-12.7l-4.2-7.3l-0.1-0.3l-11.1-19.2l0-8.4l33.6-58.1l8.8-15.2l0.9-1.5
			l2.2-3.8l5.3-5.6l0.6-0.1h97.4l0.2,0.1l5.2,5.2L213,97.5l0,8.3l-35,60.6l-9.2,16l-2.1,3.7l-6.7,4l-0.7,0l-0.7,0L66.5,190.2
			L66.5,190.2z M64.8,15.6L60.9,20l-2.2,3.9l-0.9,1.5l-8.8,15.2L15.5,98.7l0,5.8l11.2,19.3L38.3,144l23.4,40.7l5,2.9l0.3,0l0.5,0
			l90.8,0l0.7,0l0.7,0l4.5-2.7l2.1-3.7l9.2-16l35-60.6l0-5.7l-45.7-79.2l-3.7-4H64.8L64.8,15.6z M159.7,186.2H65.5l3.6-2.6l0.7-0.5
			l11.3-6.4l29.8-17l3.8,0.1l27.7,16l8.2,4.7l4,2.3l0.8,0.5L159.7,186.2L159.7,186.2z M74,183.6h76.6l-1.4-0.8l-9.1-5.3L113.3,162
			l-1.3-0.1l-29.8,17L74,183.6L74,183.6z M162.3,185.8l-46.7-26.9l-0.1-0.7l-0.4-0.2l0.4-0.2l0.7-1l89-50.9l0.8-0.2l0.3,0l0.8-0.1
			l1.6-0.9l-0.4,0.7l0.7-0.1L162.3,185.8L162.3,185.8z M119.1,157.9l42.2,24.4l41.8-72.4L119.1,157.9L119.1,157.9z M64,184.2l-0.1,0
			l-1-0.4l-0.4-0.5l-44.1-76.3l0.4-0.5l-1.1-2l1.8,1.1l0.4-0.5l68.4,39.5l-23.3,39.6l-0.8,0.1L64,184.2L64,184.2z M23.1,109.9
			L64,180.7l20.7-35.2L23.1,109.9L23.1,109.9z M68.6,181.6l1.1-1.9l-0.4-0.5l20-33.9l21.9,12.6l-1.9,1.1L78,176.9l-7.2,4.1l-0.4-0.5
			L68.6,181.6L68.6,181.6z M90.3,148.7l-16.1,27.4L76,175l30.1-17.2L90.3,148.7L90.3,148.7z M112.6,156.6l-2.2-0.7l-9.7-5.6
			L90,144.1l73.4-124.7l47.1,81.7l-1.6,1l-0.9,0.6l-92.9,53.1l-0.2,0.1l-0.1,0.1L112.6,156.6L112.6,156.6z M93.5,143.2l8.5,4.9
			l9.7,5.6l0.9,0.3l0.6-0.3l0.5-0.3l0.1-0.1l92.9-53.1l0.3-0.2l-43.7-75.7L93.5,143.2L93.5,143.2z M88.9,143.5l-1.1-0.6l-72.1-41.6
			l0.8-1.6l0.5-0.9l9.5-16.5l36.2-62.7l4.4-2.6l69.3,0l22.7,0l1.2,0.1l0.7,0.1l2.1,0.1L88.9,143.5L88.9,143.5z M19.1,100.2L88,140
			l70.9-120.4l-23.9,0l-67.7,0h0l-2.2,1.3L29.8,81.7L19.2,100L19.1,100.2L19.1,100.2z"/>
	</g>
</g>
<g>
	<path class="st0" d="M535.5,185.1c-0.1-0.9-0.2-1.8-0.2-2.7c0-21,0-42.1,0-63.1c0-0.9,0-1.8,0-2.9c-1.6,0-3.1,0-4.8,0
		c-0.3,5.6-0.1,11.3-0.1,16.9c0,5.7,0,11.4,0,17.1c0,5.6,0,11.3,0,16.9c0,5.7,0,11.4,0,17.2c-1.6,0-3.1,0-4.7,0
		c0-24.3,0-48.5,0-72.8c0.5-0.1,0.9-0.2,1.3-0.2c6.7,0.1,13.4-0.2,20,0.3c11.5,0.9,21,6,28.3,14.9c5.2,6.3,7,13.8,6.7,21.9
		c-0.4,13.6-11,29.7-28.2,34.4c-4,1.1-8,1.7-12.1,1.8c-0.8,0-1.6,0.2-2.5,0.4C538.1,185.1,536.8,185.1,535.5,185.1z M540.3,180
		c1.7-0.1,3.2-0.2,4.6-0.3c13.6-1.3,23.6-7.9,29.6-20.3c6-12.6,2.5-27.1-8.7-35.4c-4.9-3.7-10.4-6.1-16.5-7.2
		c-3-0.5-5.9-0.8-9.1-0.4C540.3,137.5,540.3,158.6,540.3,180z"/>
	<path class="st0" d="M539.4,185.9h-4.7l-0.1-0.8c0-0.3-0.1-0.6-0.1-0.8c-0.1-0.6-0.1-1.3-0.1-1.9c0-17.7,0-35.4,0-53.1v-12h-3.1
		c-0.1,3.5-0.1,7-0.1,10.5c0,1.9,0,3.7,0,5.6c0,4,0,7.9,0,11.9l0,40.2h-6.4v-74.5l0.7-0.1c0.2,0,0.3-0.1,0.4-0.1
		c0.3-0.1,0.6-0.1,1-0.1c2.1,0,4,0,6,0c1.2,0,2.5,0,3.7,0c3.1,0,6.7,0,10.4,0.3c11.6,0.9,21.3,6.1,28.9,15.3
		c4.9,6,7.2,13.3,6.9,22.5c-0.4,13.4-10.6,30.3-28.9,35.2c-3.9,1.1-8.1,1.7-12.3,1.8c-0.5,0-1,0.1-1.5,0.2
		C540,185.8,539.7,185.9,539.4,185.9L539.4,185.9z M536.3,184.2h2.9c0.2,0,0.5-0.1,0.7-0.1c0.6-0.1,1.2-0.2,1.8-0.2
		c4.1-0.1,8.1-0.7,11.9-1.7c17.4-4.7,27.2-20.8,27.6-33.6c0.2-8.7-1.9-15.6-6.5-21.3c-7.2-8.8-16.6-13.7-27.7-14.6
		c-3.6-0.3-7.2-0.3-10.2-0.3c-1.2,0-2.4,0-3.7,0c-2,0-4,0-6.1,0l0,0c-0.1,0-0.3,0-0.4,0.1v71.2h2.9l0-38.4c0-4,0-7.9,0-11.9
		c0-1.8,0-3.7,0-5.5c0-3.7,0-7.6,0.1-11.4l0-0.8h6.5l0,13.7c0,17.7,0,35.4,0,53.1C536.2,182.9,536.2,183.5,536.3,184.2
		C536.3,184.1,536.3,184.2,536.3,184.2z M539.4,180.9v-65.3l0.7-0.1c2.8-0.4,5.6-0.3,9.4,0.4c6.2,1.1,11.8,3.6,16.8,7.3
		c11.4,8.6,15.1,23.6,9,36.5c-5.9,12.4-16.1,19.4-30.3,20.8c-1,0.1-2,0.2-3,0.2c-0.5,0-1.1,0.1-1.6,0.1L539.4,180.9z M541.2,117.1
		v61.9c0.2,0,0.5,0,0.7,0c1-0.1,2-0.1,3-0.2c13.5-1.3,23.2-8,28.9-19.8c5.8-12.1,2.3-26.3-8.4-34.4c-4.8-3.6-10.2-6-16.1-7
		C546,117,543.5,116.9,541.2,117.1z"/>
</g>
<g>
	<path class="st0" d="M834.5,28.1c-11.3,0-22.6,0-34.1,0c0,8.5,0,16.7,0,25.3c2.9,0,5.8,0,8.7,0c3,0,6,0,9.1,0c2.9,0,5.9,0,9,0
		c0,1.5,0,2.9,0,4.6c-2.1,0.2-4.4,0.1-6.6,0.1c-2.3,0-4.5,0-6.8,0c-2.2,0-4.4,0-6.5,0c-2.2,0-4.5,0-6.9,0c0,1.3,0,2.5,0,3.9
		c8.9,0,17.8,0,26.8,0c0,1.7,0,3,0,4.7c-3,0.2-5.9,0.1-8.8,0.1c-3,0-6,0-9.1,0c-2.9,0-5.9,0-9,0c0,8.1,0,16.1,0,24.3
		c2.2,0.2,4.4,0.1,6.6,0.1c2.3,0,4.5,0,6.8,0c2.2,0,4.4,0,6.5,0c2.3,0,4.5,0,6.8,0c2.2,0,4.5,0,6.8,0c0,1.6,0,3.1,0,4.7
		c-12.7,0-25.4,0-38.2,0c0-24.1,0-48,0-72.3c12.9,0,25.9-0.1,38.8-0.1C834.5,25,834.5,26.6,834.5,28.1z"/>
	<path class="st0" d="M834.8,96.7h-39.9v-74l40.5-0.1V29h-34.1v23.6l1.6,0c2.1,0,4.2,0,6.2,0l3.3,0l15.6,0v6.3l-0.8,0.1
		c-0.9,0.1-1.8,0.1-3,0.1c-0.5,0-1,0-1.5,0c-0.5,0-1,0-1.5,0l-0.6,0c-0.9,0-1.7,0-2.6,0l-16.7,0v2.1h26.8v6.4l-0.8,0
		c-1.2,0.1-2.5,0.1-4.1,0.1c-0.7,0-1.3,0-2,0c-0.7,0-1.3,0-2,0l-0.8,0c-1.2,0-2.3,0-3.5,0l-13.6,0v22.6c0.6,0,1.3,0,2.1,0
		c0.5,0,1,0,1.5,0c0.5,0,1,0,1.6,0l0.6,0c0.9,0,1.7,0,2.6,0l25.2,0V96.7z M796.6,95H833V92l-23.4,0c-0.9,0-1.7,0-2.6,0l-0.6,0
		c-0.5,0-1,0-1.5,0c-0.5,0-1,0-1.5,0c-1.2,0-2.2,0-3-0.1l-0.8-0.1v-26l15.4,0c1.2,0,2.3,0,3.5,0l0.8,0c0.7,0,1.3,0,2,0
		c0.7,0,1.3,0,2,0c1.2,0,2.3,0,3.2-0.1v-3h-26.8v-5.7l18.5,0c0.9,0,1.7,0,2.6,0l0.6,0c0.5,0,1,0,1.6,0c0.5,0,1,0,1.5,0
		c0.8,0,1.5,0,2.1,0v-2.9l-17.2,0c-2.1,0-4.2,0-6.2,0l-3.4,0V27.3h34.1v-2.9l-37,0.1V95z"/>
</g>
<g>
	<path class="st0" d="M314.3,185.1c0-23.1,0-46.1,0-69.2c0-0.9,0-1.8,0-2.7c1.6-0.5,36.5-0.7,40-0.2c0,1.3,0,2.7,0,4.4
		c-11.7,0-23.4,0-35.2,0c0,8.5,0,16.7,0,25.1c4.5,0.3,9,0.1,13.5,0.1c4.4,0,8.8,0,13.4,0c0,1.7,0,3.1,0,4.8c-9,0-17.8,0-26.8,0
		c0,1.4,0,2.5,0,3.9c8.9,0,17.7,0,26.7,0c0,1.6,0,3.1,0,4.7c-8.9,0-17.7,0-26.9,0c-0.2,9.9,0,19.5-0.1,29.2
		C317.4,185.1,315.9,185.1,314.3,185.1z"/>
	<path class="st0" d="M319.8,185.9h-6.4l0-73.4l0.6-0.2c1.4-0.5,18.7-0.6,25.2-0.6c3.9,0,13.3,0,15.2,0.3l0.8,0.1v6l-0.9,0
		c-4,0-8.1,0-12.1,0l-12.2,0c-3.3,0-6.7,0-10.1,0v23.4c1.5,0.1,3.1,0.1,5.1,0.1c1,0,2.1,0,3.1,0c1,0,2.1,0,3.1,0l1.2,0
		c1.7,0,3.5,0,5.2,0l9,0v6.5h-26.8v2.1h26.7v6.4h-26.9c-0.1,5.4-0.1,10.8-0.1,16.1c0,4.1,0,8.2,0,12.2L319.8,185.9z M315.2,184.2
		h2.9c0-3.8,0-7.6,0-11.4c0-5.5,0-11.3,0.1-17l0-0.9H345v-2.9h-26.7v-5.6h26.8v-3l-7.2,0c-1.8,0-3.5,0-5.2,0l-1.2,0
		c-1,0-2.1,0-3.1,0c-1,0-2.1,0-3.1,0c-2.4,0-4.3,0-6.1-0.2l-0.8,0v-26.8l0.9,0c3.7,0,7.3,0,10.9,0l12.2,0c3.7,0,7.5,0,11.2,0v-2.7
		c-2.1-0.1-7.3-0.2-14.2-0.2c-10.9,0-21.3,0.2-24.1,0.4L315.2,184.2z"/>
</g>
<g>
	<path class="st0" d="M413.1,185.1c-1.1-0.2-2.2-0.4-3.3-0.7c-10.9-2.4-18.9-8.5-23.3-18.8c-4.8-11.2-5.3-22.5,0.1-33.7
		c4.8-10,12.4-16.8,23.4-19.1c8.6-1.8,16.8-0.8,24.3,4c0.5,0.3,1,0.7,1.5,1.1c0.2,0.1,0.3,0.3,0.5,0.6c-0.8,1.1-1.7,2.2-2.6,3.3
		c-1-0.6-2-1-2.9-1.5c-12.5-7.3-27.8-3-36.1,7.2c-10.1,12.6-9.4,32.5,1.5,44.3c6.2,6.6,13.9,9.1,22.8,8c6.7-0.8,9.6-2.1,16.3-6.9
		c1,1.1,2,2.2,3.1,3.4c-2.7,2.6-5.6,4.5-8.9,5.8c-3.3,1.3-6.8,2.3-10.4,2.6c-0.5,0-0.9,0.3-1.4,0.4
		C416.2,185.1,414.6,185.1,413.1,185.1z"/>
	<path class="st0" d="M417.9,185.9l-4.9,0l-1-0.2c-0.8-0.1-1.5-0.3-2.3-0.5c-11.5-2.5-19.6-9-24-19.3c-5.1-12-5.1-23.6,0.1-34.4
		c5.1-10.7,13.2-17.3,24.1-19.6c9.3-2,17.6-0.6,25,4.1c0.6,0.4,1.2,0.8,1.6,1.1c0.2,0.2,0.3,0.3,0.5,0.5c0.1,0.1,0.1,0.2,0.2,0.2
		l0.4,0.5l-3.5,4.5l-0.7-0.3c-0.3-0.2-0.7-0.3-1-0.5c-0.7-0.3-1.3-0.7-1.9-1c-4-2.4-8.4-3.5-13.1-3.5c-8.4,0-16.6,4-21.9,10.6
		c-9.9,12.3-9.2,31.7,1.5,43.2c5.7,6.2,13.2,8.8,22,7.7c6.3-0.7,9.1-1.9,15.9-6.8l0.6-0.5l4.2,4.6l-0.6,0.6
		c-2.7,2.6-5.8,4.6-9.2,5.9c-3.7,1.5-7.2,2.3-10.6,2.7c-0.2,0-0.5,0.1-0.8,0.2c-0.2,0.1-0.3,0.1-0.5,0.2L417.9,185.9z M413.2,184.2
		h4.4c0.1,0,0.2-0.1,0.3-0.1c0.3-0.1,0.7-0.2,1.1-0.3c3.3-0.3,6.6-1.2,10.2-2.6c3-1.2,5.6-2.8,8-5l-2-2.2c-6.1,4.3-9.3,5.8-16,6.6
		c-9.4,1.1-17.4-1.7-23.5-8.3c-11.3-12.1-12-32.5-1.6-45.5c5.6-7,14.3-11.2,23.3-11.2c5,0,9.7,1.3,14,3.8c0.6,0.3,1.2,0.7,1.8,1
		c0.1,0.1,0.2,0.1,0.3,0.2l1.7-2.2c-0.4-0.3-0.9-0.6-1.4-1c-6.9-4.5-14.8-5.8-23.6-3.9c-10.3,2.2-18,8.5-22.8,18.7
		c-5,10.4-5,21.5-0.1,33c4.2,9.8,11.8,15.9,22.7,18.3c0.7,0.2,1.5,0.3,2.2,0.5L413.2,184.2z"/>
</g>
<g>
	<path class="st0" d="M238,23.5c0.8,0,1.7,0.1,2.5,0.1c12.2,0,24.3,0,36.5,0c0.8,0,1.6,0.1,2.6,0.1c0,1.6,0,3,0,4.6
		c-6,0.3-11.9,0-18.1,0.2c0,22.5,0,44.8,0,67.3c-1.7,0-3.1,0-4.8,0c0-22.3,0-44.7,0-67.2c-6.4,0-12.6,0-18.7,0
		C238,26.9,238,25.2,238,23.5z"/>
	<path class="st0" d="M262.4,96.6h-6.5V29.4h-18.7v-6.9l1.7,0.1c0.6,0,1.1,0,1.7,0l36.5,0c0.6,0,1.1,0,1.8,0.1c0.3,0,0.6,0,0.9,0
		l0.8,0v6.2l-0.8,0c-1.8,0.1-3.7,0.1-6.3,0.1c-1,0-2.1,0-3.1,0c-1.1,0-2.1,0-3.2,0c-1.8,0-3.3,0-4.7,0.1V96.6z M257.6,94.9h3V27.6
		l0.8,0c1.6-0.1,3.4-0.1,5.6-0.1c1.1,0,2.1,0,3.2,0c1,0,2.1,0,3.1,0c2.1,0,3.8,0,5.3-0.1v-2.9c0,0,0,0,0,0c-0.6,0-1.1-0.1-1.6-0.1
		l-36.5,0c-0.5,0-1.1,0-1.6,0v3.3h18.7V94.9z"/>
</g>
<g>
	<path class="st0" d="M503.9,23.5c0,24.3,0,48.3,0,72.5c-1.2,0-2.3,0.2-3.4-0.1c-0.7-0.2-1.5-0.8-1.9-1.4c-1.5-2-2.9-4.2-4.3-6.2
		c-9.4-13.7-18.9-27.5-28.3-41.2c-0.4-0.6-0.9-1.2-1.7-1.7c0,16.8,0,33.5,0,50.4c-1.7,0-3.1,0-4.8,0c0-0.8-0.1-1.6-0.1-2.5
		c0-17.4,0-34.9,0.1-52.3c0-3.5-1.6-5.9-4-8.3c0,21,0,41.9,0,63c-1.6,0-3,0-4.5,0c0-24,0-48,0-72.2c1.3,0,2.6-0.2,3.9,0.1
		c0.7,0.1,1.4,0.9,1.8,1.6c2,2.8,3.9,5.7,5.9,8.5c11.7,17,23.4,34,35,50.9c0.4,0.6,0.9,1.2,1.6,2.2c0.1-0.8,0.3-1.3,0.3-1.7
		c0-18.9,0-37.8,0-56.8c0-1.1,0-2.3,0-3.4c0-1,0.6-1.5,1.6-1.5C501.9,23.5,502.8,23.5,503.9,23.5z"/>
	<path class="st0" d="M501.9,97c-0.6,0-1.1,0-1.5-0.1c-1-0.2-1.9-1.1-2.4-1.7c-1.1-1.5-2.1-3-3.2-4.5c-0.4-0.6-0.8-1.2-1.2-1.8
		l-4.4-6.4c-8-11.6-16-23.2-24-34.8c0,0-0.1-0.1-0.1-0.1v49.2h-6.5l-0.1-1.6c0-0.6-0.1-1.1-0.1-1.7c0-4.3,0-8.5,0-12.8
		c0-13,0-26.4,0.1-39.5c0-2.5-0.8-4.3-2.2-6v61.7h-6.3v-74h0.9c0.4,0,0.7,0,1.1,0c0.4,0,0.8,0,1.2,0c0.7,0,1.2,0,1.8,0.2
		c0.8,0.2,1.6,0.8,2.4,1.9c1.5,2.1,3,4.3,4.5,6.4l12,17.5l24.4,35.5c0.1,0.1,0.1,0.2,0.2,0.3c0-15.3,0-30.6,0-46l0-10.8
		c0-0.9,0-1.8,0-2.8c0-1.5,0.9-2.3,2.4-2.3l0.1,0c0.3,0,0.7,0,1,0l2.7,0v74.3h-0.9c-0.3,0-0.7,0-1,0C502.5,96.9,502.2,97,501.9,97z
		 M463.4,43.9l1.3,0.8c1,0.6,1.5,1.3,2,1.9c8,11.6,16,23.2,24,34.8l4.4,6.4c0.4,0.6,0.8,1.2,1.2,1.8c1,1.5,2,3,3.1,4.5
		c0.4,0.5,1,1,1.4,1.1c0.5,0.1,1.3,0.1,2.1,0.1c0.1,0,0.2,0,0.2,0V24.4l-1,0c-0.4,0-0.7,0-1.1,0c0,0,0,0,0,0c-0.5,0-0.7,0.1-0.7,0.6
		c0,0.9,0,1.8,0,2.7l0,10.8c0,15.5,0,31.1,0,46.6c0,0.4-0.1,0.7-0.1,1.1c0,0.2-0.1,0.4-0.1,0.7l-0.3,2.1l-1.9-2.6
		c-0.4-0.5-0.7-0.9-0.9-1.3l-36.5-53c-1.4-2.1-2.9-4.3-4.5-6.4c-0.6-0.8-1.1-1.2-1.3-1.2c-0.7-0.1-1.6-0.1-2.5-0.1
		c-0.1,0-0.2,0-0.3,0v70.5h2.8V30.6l1.5,1.5c2.2,2.2,4.3,4.8,4.3,8.9c-0.1,13.2-0.1,26.6-0.1,39.5c0,4.3,0,8.5,0,12.8
		c0,0.5,0,1.1,0.1,1.6h3.1V43.9z"/>
</g>
<g>
	<path class="st0" d="M270.9,184.5c-14.1,0.2-26-9.2-30.5-20.3c-3.9-9.6-4.6-19.4-1.1-29.2c4.4-12.2,13.1-19.7,25.8-22.4
		c11-2.4,20.9-0.3,29.7,6.9c6,4.9,9.6,11.3,11,18.9c1.5,7.7,1.4,15.4-1.3,22.9c-4.5,12.8-13.6,20.3-27,22.6
		C275.4,184.1,273.1,184.3,270.9,184.5z M242,149.2c0.2,1.5,0.4,4.5,1,7.3c2.2,10,8.1,17.2,17.5,21.2c5.3,2.3,10.8,2.4,16.4,1.4
		c5.4-1,10.4-3,14.6-6.7c8.1-7.1,10.7-16.4,10.5-26.7c0-2-0.5-4-0.8-6.1c-0.8-5.4-3-10.1-6.7-14c-7.1-7.4-15.7-10.4-25.8-8.9
		c-5.9,0.9-11.5,2.9-16.1,6.9C245.3,130,242.1,138.2,242,149.2z"/>
	<path class="st0" d="M270.5,185.4c-13.2,0-25.9-8.6-30.8-20.9c-4.1-10.3-4.5-20.4-1.1-29.8c4.4-12.4,13.3-20.1,26.4-23
		c11.4-2.5,21.7-0.1,30.4,7c6,4.9,9.9,11.5,11.4,19.4c1.6,8.6,1.2,16.3-1.3,23.3c-4.6,13-13.9,20.8-27.6,23.2
		c-1.5,0.3-3.1,0.4-4.6,0.5c-0.7,0.1-1.4,0.1-2.1,0.2L270.5,185.4z M273.5,112.5c-2.6,0-5.4,0.3-8.2,0.9
		c-12.5,2.7-20.9,10.1-25.2,21.9c-3.2,9.1-2.9,18.7,1.1,28.6c4.7,11.6,16.7,19.8,29.2,19.8l0.4,0c0.6-0.1,1.4-0.1,2.1-0.2
		c1.5-0.1,3-0.3,4.5-0.5c13-2.3,21.9-9.7,26.3-22.1c2.4-6.8,2.8-14.1,1.3-22.4c-1.4-7.5-5-13.7-10.7-18.4
		C288.1,115,281.1,112.5,273.5,112.5z M270.6,180.6L270.6,180.6c-3.8,0-7.2-0.7-10.4-2c-9.7-4.1-15.7-11.5-18.1-21.8
		c-0.5-2.1-0.7-4.3-0.9-5.9c-0.1-0.6-0.1-1.1-0.2-1.5l0-0.1l0-0.1c0.1-11.4,3.6-19.8,10.9-26.2c4.3-3.8,9.7-6.1,16.5-7.1
		c10.3-1.5,19.3,1.6,26.6,9.2c3.8,3.9,6.1,8.8,7,14.5c0.1,0.5,0.2,1,0.3,1.6c0.3,1.5,0.5,3.1,0.5,4.6c0.2,11.8-3.3,20.8-10.8,27.4
		c-4,3.6-8.9,5.8-15,6.9C274.7,180.4,272.6,180.6,270.6,180.6z M242.8,149.1c0.1,0.4,0.1,0.9,0.2,1.4c0.2,1.6,0.4,3.7,0.8,5.7
		c2.2,9.8,7.9,16.7,17,20.6c3,1.3,6.1,1.9,9.7,1.9h0c2,0,4-0.2,6.2-0.6c5.7-1,10.4-3.1,14.2-6.4c7.1-6.2,10.4-14.8,10.2-26.1
		c0-1.4-0.3-2.9-0.5-4.4c-0.1-0.5-0.2-1.1-0.3-1.6c-0.8-5.3-3-9.9-6.5-13.5c-6.9-7.2-15.3-10.1-25.1-8.7c-6.4,0.9-11.5,3.1-15.6,6.7
		C246.2,130.3,242.9,138.2,242.8,149.1z"/>
</g>
<g>
	<path class="st0" d="M511.2,147.1c-0.3,4.9-0.9,9.7-2.7,14.3c-4.6,11.8-13.1,19-25.5,21.5c-6.4,1.3-12.7,1.3-18.9-1
		c-8.4-3.1-14.8-8.7-18.6-16.8c-4.3-9-5.4-18.5-2.7-28.1c3.9-13.9,13.2-22.4,27.4-25.3c8.5-1.7,16.5-0.7,24,3.6
		c9.7,5.5,15,13.9,16.3,24.9C510.8,142.5,511,144.8,511.2,147.1z M475.7,179c1.8-0.2,3.9-0.3,6-0.7c11.8-2.3,19.6-9.3,23.1-20.8
		c1.8-5.8,1.7-11.7,0.9-17.7c-1.7-12.8-12.2-21.3-21.5-23.4c-4.1-0.9-8.2-0.9-12.4-0.2c-11.3,2-19.3,8.1-23.4,18.9
		c-3.7,9.8-3,19.4,1.8,28.6C455.5,173.8,464.1,178.6,475.7,179z"/>
	<path class="st0" d="M474.9,184.6c-3.9,0-7.6-0.7-11.1-1.9c-8.8-3.3-15.3-9.1-19.1-17.2c-4.5-9.5-5.4-19.2-2.7-28.8
		c4-14.2,13.4-22.9,28-25.9c8.8-1.8,17.1-0.6,24.6,3.7c9.8,5.6,15.4,14.2,16.8,25.5c0.2,1.6,0.3,3.2,0.5,4.7
		c0.1,0.7,0.1,1.5,0.2,2.2l0,0.1l0,0.1c-0.3,5.8-1.2,10.4-2.7,14.5c-4.7,12.1-13.5,19.5-26.2,22.1
		C480.3,184.3,477.6,184.6,474.9,184.6z M477.8,111.7c-2.4,0-4.9,0.3-7.4,0.8c-13.9,2.9-22.9,11.2-26.7,24.7
		c-2.6,9.2-1.7,18.4,2.6,27.5c3.7,7.7,9.8,13.2,18.1,16.3c5.5,2,11.6,2.4,18.4,1c12.1-2.5,20.4-9.5,24.9-21
		c1.5-3.9,2.3-8.3,2.6-13.9c-0.1-0.7-0.1-1.4-0.2-2.1c-0.1-1.5-0.3-3.1-0.5-4.7c-1.3-10.8-6.7-18.9-15.9-24.2
		C488.8,113.2,483.4,111.7,477.8,111.7z M475.7,179.9L475.7,179.9c-12.2-0.4-21.1-5.7-26.3-15.8c-5-9.6-5.6-19.4-1.8-29.3
		c4.1-10.9,12.2-17.4,24.1-19.5c4.5-0.8,8.7-0.7,12.7,0.2c9.7,2.2,20.5,11.1,22.2,24.1c0.9,7.1,0.6,12.9-1,18.1
		c-3.6,11.8-11.6,19-23.8,21.4c-1.5,0.3-3,0.4-4.3,0.5C476.9,179.8,476.3,179.8,475.7,179.9L475.7,179.9z M477.9,116.6
		c-1.9,0-3.8,0.2-5.8,0.5c-11.2,1.9-18.8,8.1-22.7,18.4c-3.6,9.4-3,18.7,1.7,27.8c5,9.6,13,14.4,24.6,14.8c0.5-0.1,1.1-0.1,1.7-0.2
		c1.4-0.1,2.8-0.3,4.2-0.5c11.5-2.3,19.1-9.1,22.4-20.2c1.5-5,1.8-10.4,0.9-17.4c-1.6-12.2-11.7-20.6-20.8-22.6
		C482,116.8,480,116.6,477.9,116.6z"/>
</g>
<g>
	<path class="st0" d="M621.3,155.7c-8.9,0-17.7,0-26.6,0c0,8.2,0,16.1,0,24.3c11.2,0,22.2,0,33.5,0c0,1.6,0,3.1,0,4.6
		c-12.7,0-25.4,0-38.3,0c0-24,0-48,0-71.9c1.4-0.5,35.6-0.7,39-0.2c0,1,0,2.1,0,3.2c0,0.8-0.5,1.3-1.3,1.3c-0.5,0-1,0-1.5,0
		c-9.6,0-19.3,0-28.9,0c-0.8,0-1.5,0-2.4,0c0,8.4,0,16.6,0,25.1c0.7,0,1.5,0,2.2,0c7.2,0,14.5,0,21.7,0c0.6,0,1.1,0,1.7,0
		c0.8,0,1.3,0.4,1.3,1.3c0,1.1,0,2.2,0,3.5c-9.1,0-17.9,0-26.9,0c0,1.3,0,2.5,0,3.9c2.1,0.2,4.4,0.1,6.6,0.1c2.3,0,4.5,0,6.8,0
		c2.2,0,4.4,0,6.5,0c2.2,0,4.5,0,6.8,0C621.8,152.5,621.8,154,621.3,155.7z"/>
	<path class="st0" d="M629,185.4h-40V112l0.6-0.2c1.4-0.5,23.2-0.5,23.4-0.5c4.2,0,14.1,0,15.9,0.3l0.7,0.1l0,1.7c0,0.8,0,1.5,0,2.3
		c0,1.3-0.9,2.1-2.2,2.2c-0.2,0-0.3,0-0.5,0l-1,0h-30.4v23.3l23.1,0c0.6,0,1.1,0,1.7,0c1.4,0,2.2,0.8,2.2,2.2c0,0.8,0,1.5,0,2.3
		l0,2.1h-26.9v2.2c0.6,0,1.3,0,2,0c0.5,0,1,0,1.5,0c0.5,0,1,0,1.6,0l0.5,0c0.9,0,1.8,0,2.7,0l18.1,0l0.1,0.7
		c0.3,1.4,0.5,3.2-0.1,5.3l-0.2,0.6h-26.4v22.5H629V185.4z M590.8,183.7h36.5v-2.8h-33.5v-26h26.8c0.2-1,0.2-1.9,0.1-3.1l-16.7,0
		c-0.9,0-1.8,0-2.7,0l-0.5,0c-0.5,0-1,0-1.6,0c-0.5,0-1,0-1.6,0c-1.2,0-2.1,0-3-0.1l-0.8-0.1V146h26.9v-0.3c0-0.8,0-1.6,0-2.3
		c0-0.3,0-0.4-0.5-0.4c-0.6,0-1.1,0-1.7,0l-24.8,0v-26.8l33.2,0c0.1,0,0.3,0,0.4,0c0.5,0,0.5-0.2,0.5-0.5c0-0.8,0-1.5,0-2.3v-0.1
		c-2.1-0.1-7.6-0.2-14.9-0.2c-10,0-19.6,0.2-22.3,0.4V183.7z"/>
</g>
<g>
	<path class="st0" d="M353.7,28.2c0,8.5,0,16.8,0,25.2c9,0,17.8,0,26.8,0c0,1.6,0,2.9,0,4.6c-2.1,0.3-4.3,0.1-6.6,0.1
		c-2.2,0-4.5,0-6.8,0c-2.2,0-4.4,0-6.5,0c-2.2,0-4.5,0-6.9,0c0,1.3,0,2.4,0,3.9c2.1,0.2,4.4,0.1,6.6,0.1c2.3,0,4.5,0,6.8,0
		c2.2,0,4.4,0,6.5,0c2.2,0,4.5,0,6.9,0c0,1.6,0,3,0,4.7c-8.9,0-17.8,0-26.8,0c0,8.2,0,16.2,0,24.4c11.2,0,22.3,0,33.4,0
		c0.5,1.6,0.3,3.1,0.1,4.6c-12.8,0-25.5,0-38.1,0c-0.4-1.6-0.5-69.5-0.1-72.2c12.8,0,25.7,0,38.7,0c0,1.4,0,2.8,0,4.5
		C376.3,28.2,365,28.2,353.7,28.2z"/>
	<path class="st0" d="M388,96.7h-39.6l-0.2-0.7c-0.5-1.8-0.6-69.6-0.1-72.5l0.1-0.7h40.3V29h-34v23.5h26.8v6.2l-0.8,0.1
		c-0.9,0.1-1.8,0.2-3,0.2c-0.5,0-1,0-1.6,0c-0.5,0-1,0-1.6,0l-0.6,0c-0.9,0-1.8,0-2.6,0l-16.7,0v2.2c0.6,0,1.3,0,2,0
		c0.5,0,1,0,1.5,0c0.5,0,1,0,1.6,0l0.6,0c0.9,0,1.7,0,2.6,0l18.5,0v6.5h-26.8v22.7h33.2l0.2,0.6c0.5,1.8,0.4,3.4,0.2,5L388,96.7z
		 M349.8,95h36.5c0.1-1,0.1-1.9,0-2.9h-33.6V65.9h26.8v-3l-16.7,0c-0.9,0-1.7,0-2.6,0l-0.6,0c-0.5,0-1,0-1.5,0c-0.5,0-1,0-1.5,0
		c-1.2,0-2.1,0-3-0.1l-0.8-0.1v-5.6l18.5,0c0.9,0,1.7,0,2.6,0l0.6,0c0.5,0,1.1,0,1.6,0c0.5,0,1,0,1.5,0c0.8,0,1.4,0,2-0.1v-2.9
		h-26.8v-27h34v-2.7h-37C349.5,31.9,349.5,87.8,349.8,95z"/>
</g>
<g>
	<path class="st0" d="M296.2,95.9c-1.7,0-3.1,0-4.6,0c0-24.1,0-48.1,0-72.2c1.5,0,2.9,0,4.5,0c0,11.4,0,22.7,0,34.1
		c11.8,0,23.2,0,35,0c0-11.4,0-22.7,0-34.1c1.7,0,3,0,4.4,0c0.4,1.6,0.6,68,0.2,72.1c-1.3,0-2.7,0-4.3,0c-0.1-2.7,0-5.4,0-8.1
		c0-2.7,0-5.5,0-8.2s0-5.5,0-8.2c0-2.7,0-5.4,0-8.3c-11.8,0-23.3,0-35.1,0c-0.2,2.1-0.1,4.3-0.1,6.4c0,2.2,0,4.4,0,6.5
		c0,2.3,0,4.5,0,6.8c0,2.2,0,4.4,0,6.5C296.2,91.3,296.2,93.5,296.2,95.9z"/>
	<path class="st0" d="M297,96.7h-6.4v-74h6.3v34.1h33.2V22.7h6l0.2,0.7c0.5,1.7,0.6,68,0.2,72.4l-0.1,0.8h-6l0-0.9
		c-0.1-1.8,0-3.7,0-5.5c0-0.9,0-1.8,0-2.6c0-1.9,0-3.8,0-5.7l0-18.1h-33.4c-0.1,1.2-0.1,2.4,0,3.5c0,0.7,0,1.4,0,2c0,1.5,0,3,0,4.5
		L297,96.7z M292.4,95h2.8l0-21.1c0-1.5,0-3,0-4.6c0-0.7,0-1.3,0-2c0-1.5,0-3,0.1-4.5l0.1-0.8h36.7l0,19.9c0,1.9,0,3.8,0,5.7
		c0,0.9,0,1.8,0,2.7c0,1.5,0,3,0,4.6h2.7c0.3-8,0.2-63.2-0.2-70.3H332v34.1h-36.8V24.5h-2.8V95z"/>
</g>
<g>
	<path class="st0" d="M689.1,23.7c1.5,0,2.9,0,4.5,0c0,0.8,0.1,1.5,0.1,2.2c0,5.4-0.1,10.8-0.1,16.2c0,9.3,0.1,18.6,0.2,27.8
		c0,3.8,0.6,7.4,1.8,11c2.2,6.4,6.8,9.9,13.5,10.1c2.9,0.1,5.7-0.2,8.6-0.6c3.8-0.5,6.3-2.8,7.9-6.2c1.5-3.2,2.2-6.7,2.4-10.2
		c0.1-1.6,0.1-3.2,0.1-4.8c0-14.1,0-28.3,0.1-42.4c0-1,0.1-2.1,0.2-3.2c1.2,0,2.1,0,3.1,0c1.1,0,1.5,0.6,1.5,1.6c0,0.3,0,0.6,0,0.8
		c0,14.9,0,29.8-0.1,44.7c0,4.7-0.7,9.2-2.2,13.7c-1.8,5.1-5,8.6-10.3,10.2c-6.3,2-12.5,2.2-18.8-0.3c-5.5-2.2-8.9-6.2-10.7-11.7
		c-1.4-4.2-2-8.5-2-12.9c-0.1-15-0.1-30-0.1-44.9C689,24.5,689,24.2,689.1,23.7z"/>
	<path class="st0" d="M711.2,97c-3.4,0-6.6-0.6-9.8-1.9c-5.5-2.2-9.3-6.3-11.2-12.3c-1.3-4-2-8.4-2-13.1
		c-0.1-11.1-0.1-22.3-0.1-33.2c0-3.9,0-7.8,0-11.7c0-0.2,0-0.4,0.1-0.7l0.1-1.2h6.2l0,0.8c0,0.2,0,0.5,0,0.7c0,0.5,0.1,1.1,0.1,1.6
		c0,2,0,4.1,0,6.1c0,3.4-0.1,6.7,0,10.1c0,5.7,0.1,11.3,0.1,17c0,3.6,0,7.2,0.1,10.9c0,3.7,0.6,7.3,1.8,10.7
		c2.1,6.1,6.4,9.3,12.7,9.5c2.9,0.1,5.8-0.3,8.4-0.6c3.3-0.5,5.7-2.4,7.3-5.7c1.3-2.8,2.1-6,2.4-9.9c0.1-1.5,0.1-3.1,0.1-4.6l0-19.4
		c0-7.7,0-15.4,0-23.1c0-0.7,0.1-1.4,0.1-2.2c0-0.4,0.1-0.7,0.1-1.1l0-0.8l4,0c1.5,0,2.4,0.9,2.4,2.5l0,0.8l0,12.6
		c0,10.7,0,21.4,0,32.2c0,5-0.8,9.7-2.3,14c-1.9,5.6-5.5,9.1-10.9,10.8C717.4,96.5,714.3,97,711.2,97z M689.9,24.5
		c0,0.1,0,0.1,0,0.2c0,3.9,0,7.8,0,11.8c0,10.9,0,22.1,0.1,33.2c0,4.5,0.7,8.8,2,12.6c1.8,5.5,5.1,9.1,10.2,11.2
		c5.7,2.3,11.5,2.4,18.2,0.3c4.8-1.5,8-4.7,9.8-9.7c1.4-4.1,2.1-8.6,2.2-13.4c0-10.7,0-21.4,0-32.2l0-12.6l0-0.8
		c0-0.7-0.2-0.7-0.6-0.7l-1.2,0l-1.1,0c0,0.1,0,0.2,0,0.3c-0.1,0.7-0.1,1.4-0.1,2.1c0,7.7,0,15.4,0,23.1l0,19.4c0,1.6,0,3.2-0.1,4.7
		c-0.3,4.1-1.1,7.5-2.5,10.5c-1.8,3.9-4.7,6.2-8.6,6.7c-2.7,0.4-5.7,0.7-8.7,0.7c-7.1-0.2-12-3.9-14.3-10.7
		c-1.2-3.6-1.8-7.4-1.9-11.3c0-3.6,0-7.2-0.1-10.9c0-5.7-0.1-11.3-0.1-17c0-3.4,0-6.7,0-10.1c0-2,0-4.1,0-6.1c0-0.5,0-0.9-0.1-1.4
		H689.9z"/>
</g>
<g>
	<path class="st0" d="M558.2,32.9c-1.4,0.9-2.5,1.6-3.7,2.4c-0.3-0.2-0.5-0.3-0.6-0.5c-6.2-8-19.2-8.3-27.2-3.3
		c-4.4,2.8-5.6,7.5-3.4,12.1c1.3,2.6,3.3,4.6,5.7,6c2.3,1.3,4.7,2.4,7.2,3.5c3.5,1.6,7.1,3.2,10.2,5.4c4.9,3.5,8.2,8.1,9.9,14
		c2.3,8.4-1.4,20.8-14.7,23.2c-7.1,1.3-13.7,0.4-19.5-4.2c-2.8-2.3-5.2-5.1-6.7-8.4c1.3-0.7,2.7-1.3,4.1-2c0.5,0.7,0.8,1.2,1.2,1.7
		c5.5,8.5,16.1,11.2,25,6.3c5-2.8,7.3-8.1,6.3-14.2c-0.9-5.2-3.5-9.4-8-12.1c-3.2-1.9-6.6-3.5-9.8-5.2c-2.9-1.5-5.8-2.8-8.5-4.6
		c-4-2.6-6.9-6.2-7.8-11.1c-1.1-5.4,0.5-9.9,4.8-13.3c3.5-2.8,7.7-4.2,12.2-4.9c6.2-0.9,12.1,0,17.5,3.3
		C554.6,28.4,556.6,30.3,558.2,32.9z"/>
	<path class="st0" d="M536.1,97.1c-5.6,0-10.3-1.6-14.4-4.9c-3-2.4-5.4-5.4-6.9-8.7l-0.4-0.8l5.5-2.8l0.9,1.3
		c0.3,0.4,0.5,0.7,0.7,1.1c3.4,5.2,9,8.3,15,8.3c3,0,6.1-0.8,8.8-2.3c4.7-2.6,6.8-7.5,5.8-13.3c-0.9-5.1-3.4-9-7.6-11.5
		c-2.2-1.3-4.5-2.5-6.7-3.6c-1-0.5-2-1-3.1-1.6c-0.9-0.5-1.8-0.9-2.7-1.4c-2-1-4-2-5.9-3.2c-4.5-2.9-7.3-6.8-8.2-11.6
		c-1.1-5.8,0.6-10.6,5.1-14.2c3.3-2.7,7.4-4.3,12.6-5.1c6.6-1,12.7,0.2,18,3.4c2.7,1.7,4.7,3.6,6.2,6.2l0.4,0.7l-4.9,3.2L554,36
		c-0.1-0.1-0.2-0.1-0.2-0.2c-0.2-0.1-0.4-0.3-0.5-0.5c-3.1-4-8.4-6.3-14.4-6.3c-4.2,0-8.3,1.1-11.6,3.2c-4,2.5-5.1,6.7-3.1,11
		c1.1,2.4,2.9,4.2,5.4,5.6c2.2,1.2,4.4,2.3,7.1,3.5c3.3,1.5,7.1,3.1,10.4,5.5c5.2,3.7,8.5,8.4,10.2,14.5c1.4,5.2,0.5,11.3-2.4,15.9
		c-2.8,4.5-7.3,7.4-13,8.4C539.9,96.9,537.9,97.1,536.1,97.1z M516.7,83.5c1.4,2.8,3.5,5.3,6.1,7.3c5.1,4.1,11.2,5.4,18.8,4
		c5.2-0.9,9.3-3.5,11.8-7.6c2.6-4.2,3.5-9.7,2.1-14.5c-1.6-5.7-4.7-10.1-9.5-13.5c-3.2-2.3-6.9-3.9-10.1-5.3c-2.8-1.2-5-2.3-7.3-3.6
		c-2.8-1.6-4.8-3.7-6.1-6.4c-2.5-5.1-1-10.3,3.7-13.3c3.5-2.2,8-3.4,12.5-3.4c6.6,0,12.3,2.5,15.8,6.9l2.4-1.6c-1.3-2-3-3.5-5.2-4.9
		c-5-3-10.6-4.1-16.9-3.2c-4.9,0.7-8.7,2.2-11.8,4.7c-4,3.2-5.5,7.4-4.5,12.5c0.8,4.3,3.3,7.9,7.4,10.5c1.8,1.2,3.8,2.2,5.8,3.1
		c0.9,0.5,1.8,0.9,2.7,1.4c1,0.5,2,1,3,1.6c2.3,1.2,4.6,2.4,6.9,3.7c4.6,2.8,7.4,7.1,8.4,12.7c1.1,6.5-1.4,12.2-6.7,15.1
		c-3,1.6-6.3,2.5-9.7,2.5c-6.6,0-12.8-3.4-16.5-9.1c-0.2-0.3-0.4-0.7-0.7-1l0,0L516.7,83.5z"/>
</g>
<g>
	<path class="st0" d="M635.9,28.2c0-1.6,0-2.9,0-4.2c1.5-0.5,36.6-0.7,41.2-0.2c0,1.4,0,2.8,0,4.4c-6,0-11.9,0-18.1,0
		c-0.2,5.7-0.1,11.3-0.1,16.9c0,5.6,0,11.2,0,16.9s0,11.2,0,16.9c0,5.6,0,11.2,0,17c-1.6,0-3,0-4.6,0c0-22.5,0-44.9,0-67.5
		c-2.2-0.3-4.2-0.1-6.2-0.1c-2,0-3.9,0-5.9,0C640.2,28.2,638.2,28.2,635.9,28.2z"/>
	<path class="st0" d="M659.8,96.7h-6.4V29.1c-0.8-0.1-1.5-0.1-2.1-0.1c-0.4,0-0.9,0-1.3,0c-0.4,0-0.9,0-1.3,0l-0.6,0
		c-0.8,0-1.5,0-2.3,0L635,29v-5.8l0.6-0.2c1.4-0.4,19.8-0.5,26.2-0.5c3.8,0,13,0,15.4,0.3l0.8,0.1V29h-18.1
		c-0.1,3.6-0.1,7.2-0.1,10.7c0,1.8,0,3.6,0,5.4c0,3.9,0,7.8,0,11.7L659.8,96.7z M655.2,94.9h2.9l0-38.2c0-3.9,0-7.8,0-11.7
		c0-1.8,0-3.6,0-5.4c0-3.8,0-7.7,0.1-11.6l0-0.8h18v-2.7c-2.3-0.1-7.5-0.2-14.4-0.2c-11.2,0-22.2,0.2-25,0.4v2.6l9.1,0
		c0.8,0,1.5,0,2.3,0l0.5,0c0.4,0,0.9,0,1.3,0c0.4,0,0.9,0,1.3,0c0.8,0,1.9,0,3.1,0.2l0.8,0.1V94.9z"/>
</g>
<g>
	<path class="st0" d="M744.3,28.1c0-1.7,0-3,0-4.4c13.7,0,27.3,0,41.1,0c0,1.4,0,2.7,0,4.3c-1.9,0.2-3.8,0.1-5.7,0.1
		c-2,0-4.1,0-6.1,0c-2,0-3.9,0-6.1,0c-0.2,5.7-0.1,11.3-0.1,16.9c0,5.6,0,11.3,0,16.9s0,11.3,0,16.9c0,5.6,0,11.2,0,17
		c-1.6,0-3,0-4.7,0c0-11.3,0-22.6,0-33.8c0-11.2,0-22.5,0-33.9C756.3,28.1,750.4,28.1,744.3,28.1z"/>
	<path class="st0" d="M768.2,96.7h-6.5l0-67.7h-18.3v-6.2h42.9v6l-0.8,0.1c-0.7,0.1-1.5,0.1-2.6,0.1c-0.5,0-0.9,0-1.4,0
		c-0.5,0-0.9,0-1.4,0l-0.5,0c-0.8,0-1.6,0-2.4,0l-9,0c-0.1,3.6-0.1,7.2-0.1,10.7c0,1.8,0,3.6,0,5.4c0,3.9,0,7.8,0,11.7L768.2,96.7z
		 M763.5,94.9h3l0-38.2c0-3.9,0-7.8,0-11.7c0-1.8,0-3.6,0-5.4c0-3.8,0-7.7,0.1-11.6l0-0.9l10.7,0c0.8,0,1.6,0,2.4,0l0.5,0
		c0.5,0,0.9,0,1.4,0c1.1,0,2.2,0,3,0v-2.7h-39.4v2.7h18.3L763.5,94.9z"/>
</g>
<g>
	<path class="st0" d="M583.7,28.2c-6.3,0-12.2,0-18.3,0c0-1.6,0-2.9,0-4.3c1.4-0.4,38.3-0.6,41.1-0.1c0,1.3,0,2.7,0,4.3
		c-5.9,0-11.8,0-17.9,0c-0.4,2.4-0.1,4.6-0.2,6.8c0,2.2,0,4.5,0,6.8c0,2.3,0,4.5,0,6.8c0,2.3,0,4.5,0,6.8c0,2.3,0,4.5,0,6.8
		c0,2.3,0,4.5,0,6.8c0,2.3,0,4.5,0,6.8c0,2.3,0,4.5,0,6.8c0,2.3,0,4.5,0,6.8c0,2.2,0,4.5,0,6.9c-1.6,0-3.1,0-4.7,0
		C583.7,73.3,583.7,50.9,583.7,28.2z"/>
	<path class="st0" d="M589.3,96.6h-6.4V29.1h-18.3v-5.9l0.6-0.2c1.4-0.4,23.8-0.4,24-0.4c3.7,0,15.8,0,17.5,0.3l0.7,0.1V29h-18
		c-0.1,1.3-0.1,2.6-0.1,3.9c0,0.7,0,1.4,0,2.1c0,1.6,0,3.1,0,4.7L589.3,96.6z M584.6,94.9h2.9l0-55.3c0-1.6,0-3.2,0-4.7
		c0-0.7,0-1.3,0-2c0-1.6-0.1-3.2,0.2-4.9l0.1-0.8h17.8v-2.6c-2.2-0.1-8.3-0.2-16.4-0.2c-10.5,0-20.2,0.1-22.9,0.3v2.7h18.3V94.9z"/>
</g>
<g>
	<path class="st0" d="M429.8,23.7c1.5,0,2.9,0,4.3,0c0,24.1,0,48,0,72.1c-1.4,0-2.8,0-4.3,0C429.8,71.8,429.8,47.8,429.8,23.7z"/>
	<path class="st0" d="M435,96.7h-6V22.8h6V96.7z M430.7,94.9h2.5V24.6h-2.5V94.9z"/>
</g>
<g>
	<path class="st0" d="M617.7,23.5c1.2,0,2.2,0,3.2,0c0.9,0,1.3,0.5,1.3,1.3c0,0.6,0,1.1,0,1.7c0,22.3,0,44.6,0,66.9
		c0,0.8,0,1.5,0,2.4c-1.6,0-3,0-4.5,0C617.7,71.8,617.7,47.8,617.7,23.5z"/>
	<path class="st0" d="M623.1,96.7h-6.2V22.7l2.9,0c0.4,0,0.8,0,1.2,0c1.3,0,2.1,0.8,2.2,2.2c0,0.6,0,1.1,0,1.7L623.1,96.7z
		 M618.6,95h2.7l0-68.4c0-0.6,0-1.1,0-1.7c0-0.4-0.1-0.5-0.4-0.5c-0.4,0-0.8,0-1.2,0l-1.1,0V95z"/>
</g>
</svg>
